<svg class="logo-bb" xmlns="http://www.w3.org/2000/svg" viewBox="0 0 1792 1792" style="fill: #005aa5; background: #ffed00;">
  <path
    d="m1373.9 317.8l163.7 110.9 158.4-105.6v-221.8l-322.1 216.5m-950.5 1161.7l-163.7-110.9-163.7
    110.9v216.5l327.4-216.5m623.1-950.5l158.4 105.6-760.4 517.5 470 316.8 221.8-153.1-174.3-110.9
    396-264 332.7 216.5-802.6 533.3-786.8-528.1 945.2-633.6m-301 728.7l-158.4-105.6 760.4-517.5-470-316.8-221.8
    153.1 174.3 110.9-396 264-332.7-216.5 797.3-533.3 792.1 533.3-945.2 628.4" />
</svg>
